#!OML:ASF H:\Pregnant\Project 1\Capture day 1\Session 1\femalepreg.ASF
:FULLY-SPECIFIED
:DEGREES
620
root 18.6959 15.8912 -13.6719 -334.476 9.55682 0.850209
lowerback -11.0818 -3.78149 -7.92677
upperback -5.36818 -4.22134 -0.0551372
thorax 1.11562 -1.98908 3.86877
lowerneck -16.1381 -9.57773 -1.99133
upperneck 17.521 -14.4931 8.25387
head 8.92636 -6.12289 1.23801
rclavicle -7.05686e-015 7.95139e-016
rhumerus -53.9592 8.39577 -81.47
rradius 32.7195
rwrist -19.6316
rhand -19.4852 -27.824
rfingers 7.12502
rthumb 6.8368 -57.6936
lclavicle -7.05686e-015 7.95139e-016
lhumerus -22.3917 -14.1314 81.1616
lradius 70.7385
lwrist 45.9295
lhand -29.9872 -10.7568
lfingers 7.12502
lthumb -3.3051 19.1974
rfemur -61.8368 11.0444 14.0046
rtibia 42.7065
rfoot -9.53545 -12.4095
rtoes -13.7015
lfemur -21.4811 -7.65348 -18.3171
ltibia 24.4463
lfoot -13.9057 -5.74522
ltoes -36.1026
621
root 18.7301 15.8842 -13.4968 -334.414 9.59426 0.954179
lowerback -11.3248 -3.77782 -7.72976
upperback -5.41888 -4.22051 0.180653
thorax 1.19963 -1.99116 3.99377
lowerneck -16.0201 -9.61032 -1.94114
upperneck 17.5369 -14.4774 7.93404
head 8.87738 -6.14856 1.13458
rclavicle 1.41137e-014 3.10104e-014
rhumerus -53.6565 7.78978 -80.6545
rradius 31.6954
rwrist -19.1219
rhand -19.3991 -28.0041
rfingers 7.12502
rthumb 6.91993 -57.871
lclavicle 1.41137e-014 3.10104e-014
lhumerus -22.7278 -14.9807 81.4926
lradius 72.3047
lwrist 45.7406
lhand -30.0115 -11.244
lfingers 7.12502
lthumb -3.3286 18.7098
rfemur -61.7945 11.3093 13.6237
rtibia 41.394
rfoot -9.71424 -13.1059
rtoes -14.1287
lfemur -20.6115 -7.59061 -18.4907
ltibia 24.0057
lfoot -13.4901 -6.22405
ltoes -36.7785
622
root 18.7647 15.8739 -13.3197 -334.38 9.62766 1.05928
lowerback -11.5735 -3.76141 -7.50223
upperback -5.46898 -4.20675 0.41538
thorax 1.28359 -1.98712 4.10238
lowerneck -15.9034 -9.63315 -1.89534
upperneck 17.5852 -14.4427 7.57839
head 8.83614 -6.16775 1.02247
rclavicle -2.24627e-014 -3.33958e-014
rhumerus -53.3521 7.1917 -79.8614
rradius 30.684
rwrist -18.5176
rhand -19.3474 -28.1309
rfingers 7.12502
rthumb 6.96978 -57.9962
lclavicle -2.24627e-014 -3.33958e-014
lhumerus -23.142 -15.8536 81.8235
lradius 73.7758
lwrist 45.5662
lhand -29.9187 -11.8012
lfingers 7.12502
lthumb -3.23899 18.154
rfemur -61.6748 11.519 13.3533
rtibia 40.2594
rfoot -9.93745 -13.7414
rtoes -14.4693
lfemur -19.8081 -7.57189 -18.6536
ltibia 23.7201
lfoot -13.0681 -6.72712
ltoes -37.3907
623
root 18.8 15.8598 -13.1402 -334.384 9.63982 1.16102
lowerback -11.8283 -3.72568 -7.24022
upperback -5.51404 -4.17181 0.646901
thorax 1.371 -1.97312 4.19123
lowerneck -15.7958 -9.64493 -1.86265
upperneck 17.6742 -14.3871 7.19144
head 8.8079 -6.17902 0.904059
rclavicle -2.26615e-014 5.96354e-015
rhumerus -53.0388 6.59755 -79.0882
rradius 29.6766
rwrist -17.8036
rhand -19.3289 -28.1668
rfingers 7.12502
rthumb 6.98766 -58.0314
lclavicle -2.26615e-014 5.96354e-015
lhumerus -23.6195 -16.7338 82.1554
lradius 75.1291
lwrist 45.3909
lhand -29.7897 -12.313
lfingers 7.12502
lthumb -3.11434 17.644
rfemur -61.4623 11.6742 13.2146
rtibia 39.2904
rfoot -10.1717 -14.3008
rtoes -14.8495
lfemur -19.0674 -7.57096 -18.8149
ltibia 23.6022
lfoot -12.6345 -7.27011
ltoes -37.9065
624
root 18.8362 15.8417 -12.958 -334.443 9.62078 1.25792
lowerback -12.077 -3.66411 -6.94439
upperback -5.54709 -4.10808 0.872654
thorax 1.46153 -1.9455 4.25968
lowerneck -15.7019 -9.64788 -1.83532
upperneck 17.8072 -14.3127 6.76113
head 8.79338 -6.18408 0.773494
rclavicle -2.56929e-014 -1.27222e-014
rhumerus -52.7219 6.01212 -78.3423
rradius 28.6833
rwrist -17.0049
rhand -19.337 -28.1383
rfingers 7.12502
rthumb 6.97985 -58.0032
lclavicle -2.56929e-014 -1.27222e-014
lhumerus -24.1759 -17.6141 82.4936
lradius 76.3778
lwrist 45.1996
lhand -29.587 -12.7608
lfingers 7.12502
lthumb -2.91866 17.199
rfemur -61.1299 11.7705 13.2242
rtibia 38.4781
rfoot -10.3677 -14.7277
rtoes -15.3668
lfemur -18.3549 -7.56546 -18.9851
ltibia 23.6507
lfoot -12.1896 -7.84904
ltoes -38.3514
625
root 18.8731 15.8196 -12.7733 -334.55 9.5666 1.35203
lowerback -12.3325 -3.57981 -6.61129
upperback -5.56094 -4.01916 1.09033
thorax 1.57003 -1.90669 4.30203
lowerneck -15.6352 -9.63717 -1.82656
upperneck 17.9821 -14.2123 6.30214
head 8.79632 -6.17877 0.637608
rclavicle -5.86415e-014 -3.97569e-016
rhumerus -52.3853 5.45449 -77.6444
rradius 27.7255
rwrist -16.1669
rhand -19.3535 -28.1228
rfingers 7.12502
rthumb 6.96391 -57.9882
lclavicle -5.86415e-014 -3.97569e-016
lhumerus -24.7895 -18.4718 82.828
lradius 77.5108
lwrist 44.9696
lhand -29.3509 -13.0559
lfingers 7.12502
lthumb -2.69055 16.9068
rfemur -60.6917 11.7985 13.3831
rtibia 37.8231
rfoot -10.404 -14.9149
rtoes -16.1886
lfemur -17.6689 -7.54213 -19.1684
ltibia 23.8561
lfoot -11.7021 -8.46778
ltoes -38.6892
626
root 18.9105 15.795 -12.5865 -334.706 9.47993 1.43954
lowerback -12.5895 -3.46871 -6.24486
upperback -5.5572 -3.90028 1.30326
thorax 1.69207 -1.85389 4.32523
lowerneck -15.5952 -9.61965 -1.83034
upperneck 18.1966 -14.0931 5.80102
head 8.81488 -6.16789 0.490051
rclavicle -1.56543e-015 -9.14409e-015
rhumerus -52.0337 4.91388 -76.9866
rradius 26.8223
rwrist -15.3277
rhand -19.3623 -28.1813
rfingers 7.12502
rthumb 6.95543 -58.047
lclavicle -1.56543e-015 -9.14409e-015
lhumerus -25.4615 -19.3161 83.172
lradius 78.5277
lwrist 44.6931
lhand -29.0974 -13.2093
lfingers 7.12502
lthumb -2.44576 16.7564
rfemur -60.154 11.7543 13.6822
rtibia 37.3425
rfoot -10.0867 -14.6831
rtoes -17.0285
lfemur -17.0003 -7.48878 -19.3596
ltibia 24.2086
lfoot -11.1549 -9.12229
ltoes -38.9397
627
root 18.9478 15.7698 -12.3978 -334.898 9.37016 1.52394
lowerback -12.8477 -3.33584 -5.85214
upperback -5.5418 -3.75798 1.51439
thorax 1.82287 -1.78982 4.33573
lowerneck -15.5679 -9.59735 -1.85735
upperneck 18.4387 -13.9551 5.26532
head 8.8441 -6.1527 0.335546
rclavicle -8.00729e-015 9.44227e-016
rhumerus -51.684 4.41991 -76.3929
rradius 25.9997
rwrist -14.5437
rhand -19.3651 -28.2996
rfingers 7.12502
rthumb 6.95275 -58.1654
lclavicle -8.00729e-015 9.44227e-016
lhumerus -26.1865 -20.1437 83.5313
lradius 79.4164
lwrist 44.3581
lhand -28.8163 -13.2231
lfingers 7.12502
lthumb -2.1743 16.7456
rfemur -59.5297 11.656 14.0758
rtibia 37.0629
rfoot -9.31615 -13.9761
rtoes -17.4781
lfemur -16.3808 -7.38009 -19.56
ltibia 24.7127
lfoot -10.505 -9.82558
ltoes -39.129
628
root 18.9845 15.7449 -12.2081 -335.113 9.2465 1.61103
lowerback -13.1003 -3.18718 -5.43537
upperback -5.52532 -3.60092 1.72532
thorax 1.94919 -1.71806 4.33586
lowerneck -15.5285 -9.57606 -1.92384
upperneck 18.69 -13.8035 4.70826
head 8.87601 -6.13696 0.181606
rclavicle -3.51352e-014 -6.75868e-015
rhumerus -51.3395 3.97457 -75.86
rradius 25.2621
rwrist -13.8388
rhand -19.3631 -28.4993
rfingers 7.12502
rthumb 6.95464 -58.3651
lclavicle -3.51352e-014 -6.75868e-015
lhumerus -26.9723 -20.9471 83.9114
lradius 80.1791
lwrist 43.9698
lhand -28.4669 -13.1612
lfingers 7.12502
lthumb -1.83687 16.8106
rfemur -58.8479 11.5192 14.5133
rtibia 37.0137
rfoot -8.17659 -12.8242
rtoes -16.9814
lfemur -15.8433 -7.2198 -19.7671
ltibia 25.3896
lfoot -9.72413 -10.5682
ltoes -39.2981
629
root 19.0204 15.7217 -12.0181 -335.342 9.11953 1.70478
lowerback -13.3286 -3.02801 -4.99949
upperback -5.51715 -3.4367 1.9381
thorax 2.05265 -1.64168 4.33036
lowerneck -15.471 -9.55734 -2.03647
upperneck 18.9419 -13.6399 4.13764
head 8.90785 -6.12161 0.0319723
rclavicle 4.48011e-014 -1.86858e-014
rhumerus -51.011 3.59647 -75.397
rradius 24.6105
rwrist -13.2415
rhand -19.3823 -28.6994
rfingers 7.12502
rthumb 6.93613 -58.5658
lclavicle 4.48011e-014 -1.86858e-014
lhumerus -27.8345 -21.7174 84.3223
lradius 80.821
lwrist 43.5322
lhand -28.0198 -13.0678
lfingers 7.12502
lthumb -1.40508 16.9073
rfemur -58.149 11.3772 14.9422
rtibia 37.2137
rfoot -6.93891 -11.4419
rtoes -15.6711
lfemur -15.439 -6.9987 -19.9799
ltibia 26.2862
lfoot -8.78107 -11.3527
ltoes -39.4865
